<svg width="407" height="47" viewBox="0 0 407 47" fill="none" xmlns="http://www.w3.org/2000/svg">
<path d="M0.0880001 46L18.264 1.2H25.752L43.928 46H37.848L32.216 32.176H11.672L6.04 46H0.0880001ZM12.184 30.96H31.704L21.976 7.216L12.184 30.96ZM52.616 46V1.2H67.016C72.3493 1.2 76.5307 2.352 79.56 4.656C82.632 6.91733 84.168 10.032 84.168 14C84.168 17.2427 83.1653 19.9307 81.16 22.064C79.1547 24.1973 76.36 25.584 72.776 26.224L88.264 46H81.672L66.568 26.736C66.3547 26.7787 66.12 26.8 65.864 26.8C65.6507 26.8 65.4373 26.8 65.224 26.8H58.312V46H52.616ZM66.44 25.52C70.152 25.52 73.0747 24.6667 75.208 22.96C77.3413 21.2107 78.408 18.864 78.408 15.92C78.408 12.9333 77.3413 10.5867 75.208 8.88C73.0747 7.17333 70.152 6.32 66.44 6.32H58.312V25.52H66.44ZM106.63 46V6.768H89.286V1.2H129.67V6.768H112.39V46H106.63ZM167.028 46L148.724 1.2H154.932L170.868 40.752H171.06L186.932 1.2H193.012L174.644 46H167.028ZM216.592 46.96C212.752 46.96 209.36 46.2987 206.416 44.976C203.472 43.6107 201.125 41.6907 199.376 39.216C197.669 36.7413 196.667 33.8827 196.368 30.64H202.064C202.405 32.9867 203.173 35.0133 204.368 36.72C205.563 38.4267 207.163 39.7707 209.168 40.752C211.216 41.6907 213.584 42.16 216.272 42.16C220.112 42.16 223.099 41.4133 225.232 39.92C227.365 38.384 228.432 36.2293 228.432 33.456C228.432 31.4507 227.813 29.8293 226.576 28.592C225.381 27.312 223.76 26.3307 221.712 25.648C219.707 24.9653 217.104 24.3253 213.904 23.728H213.84C210.469 23.088 207.653 22.3627 205.392 21.552C203.173 20.7413 201.381 19.5893 200.016 18.096C198.651 16.6027 197.968 14.6613 197.968 12.272C197.968 9.84 198.672 7.728 200.08 5.936C201.531 4.10133 203.515 2.69333 206.032 1.712C208.592 0.730665 211.493 0.239998 214.736 0.239998C218.448 0.239998 221.691 0.901332 224.464 2.224C227.28 3.504 229.499 5.33866 231.12 7.728C232.741 10.1173 233.68 12.9547 233.936 16.24H227.984C227.6 12.7413 226.256 10.0107 223.952 8.048C221.648 6.08533 218.64 5.104 214.928 5.104C212.581 5.104 210.512 5.46666 208.72 6.192C206.971 6.91733 205.605 7.96267 204.624 9.328C203.643 10.6507 203.152 12.208 203.152 14C203.152 15.92 203.749 17.4773 204.944 18.672C206.139 19.824 207.781 20.7413 209.872 21.424C211.963 22.064 214.864 22.768 218.576 23.536C218.747 23.5787 218.896 23.6213 219.024 23.664C219.152 23.664 219.28 23.6853 219.408 23.728C219.493 23.7707 219.579 23.792 219.664 23.792C219.749 23.792 219.835 23.8133 219.92 23.856C222.907 24.4533 225.36 25.136 227.28 25.904C229.243 26.6293 230.843 27.7387 232.08 29.232C233.36 30.6827 234 32.6027 234 34.992C234 37.424 233.275 39.5573 231.824 41.392C230.416 43.184 228.389 44.5707 225.744 45.552C223.141 46.4907 220.091 46.96 216.592 46.96ZM267.975 46L255.367 1.2H261.51L273.543 43.952L285.062 1.2H286.407L298.055 43.952L310.087 1.2H315.975L303.431 46H297.223L285.703 3.568L274.375 46H267.975ZM318.526 46L336.702 1.2H344.19L362.366 46H356.286L350.654 32.176H330.11L324.478 46H318.526ZM330.622 30.96H350.142L340.414 7.216L330.622 30.96ZM371.054 46V1.2H385.454C390.787 1.2 394.968 2.352 397.998 4.656C401.07 6.91733 402.606 10.032 402.606 14C402.606 17.2427 401.603 19.9307 399.597 22.064C397.592 24.1973 394.798 25.584 391.214 26.224L406.702 46H400.11L385.006 26.736C384.792 26.7787 384.558 26.8 384.302 26.8C384.088 26.8 383.875 26.8 383.662 26.8H376.75V46H371.054ZM384.878 25.52C388.59 25.52 391.512 24.6667 393.646 22.96C395.779 21.2107 396.846 18.864 396.846 15.92C396.846 12.9333 395.779 10.5867 393.646 8.88C391.512 7.17333 388.59 6.32 384.878 6.32H376.75V25.52H384.878Z" fill="white"/>
</svg>
