<svg width="22" height="19" viewBox="0 0 22 19" fill="none" xmlns="http://www.w3.org/2000/svg">
<path d="M21.2071 0.455308C21.0909 0.354966 20.9495 0.288232 20.7982 0.262295C20.6469 0.236358 20.4914 0.252203 20.3484 0.308121L1.349 7.74343C1.07974 7.84814 0.851774 8.03748 0.699431 8.28296C0.547088 8.52843 0.478611 8.81675 0.504309 9.10451C0.530008 9.39227 0.648491 9.66389 0.84192 9.87849C1.03535 10.0931 1.29326 10.239 1.57681 10.2944L6.49963 11.2609V16.75C6.49866 17.049 6.58751 17.3414 6.75467 17.5893C6.92182 17.8372 7.15958 18.0291 7.43713 18.1403C7.71424 18.2535 8.019 18.2806 8.31176 18.2183C8.60452 18.1559 8.87175 18.0069 9.07869 17.7906L11.4524 15.3287L15.2184 18.625C15.4901 18.866 15.8405 18.9994 16.2037 19C16.3628 18.9999 16.521 18.9749 16.6724 18.9259C16.9199 18.8474 17.1425 18.7054 17.318 18.5141C17.4935 18.3228 17.6158 18.0889 17.6728 17.8356L21.4781 1.28125C21.5121 1.13195 21.5049 0.976202 21.4571 0.830702C21.4094 0.685202 21.323 0.555434 21.2071 0.455308ZM16.2056 17.5L8.45431 10.7031L19.6106 2.70718L16.2056 17.5Z" fill="#F9FAFB"/>
</svg>
