<svg width="20" height="20" viewBox="0 0 20 20" fill="none" xmlns="http://www.w3.org/2000/svg">
<path d="M12.3044 11.6153L14.4606 12.6916C14.3584 13.2023 14.0822 13.6617 13.679 13.9915C13.2759 14.3213 12.7708 14.501 12.25 14.5C10.4604 14.498 8.74466 13.7862 7.47922 12.5208C6.21378 11.2553 5.50198 9.5396 5.5 7.75C5.49985 7.2298 5.67997 6.72562 6.00968 6.32326C6.3394 5.9209 6.79835 5.64521 7.30844 5.54312L8.38469 7.69937L7.46875 9.0625C7.40031 9.16517 7.35825 9.28314 7.34631 9.40595C7.33437 9.52877 7.35292 9.65263 7.40031 9.76656C7.93692 11.0419 8.95152 12.0565 10.2269 12.5931C10.3411 12.6426 10.466 12.6629 10.59 12.6521C10.7141 12.6413 10.8335 12.5997 10.9375 12.5312L12.3044 11.6153ZM19.75 10C19.7504 11.6833 19.3149 13.338 18.486 14.8031C17.6572 16.2682 16.4631 17.4938 15.02 18.3605C13.577 19.2272 11.9341 19.7055 10.2514 19.7489C8.56863 19.7923 6.9033 19.3993 5.4175 18.6081L2.22531 19.6722C1.96102 19.7603 1.6774 19.7731 1.40624 19.7091C1.13509 19.6451 0.887113 19.5069 0.69011 19.3099C0.493108 19.1129 0.354864 18.8649 0.290873 18.5938C0.226882 18.3226 0.239673 18.039 0.327812 17.7747L1.39187 14.5825C0.696389 13.2749 0.307935 11.826 0.255998 10.3459C0.20406 8.86577 0.490005 7.39325 1.09213 6.04012C1.69425 4.687 2.59672 3.48882 3.73105 2.53655C4.86537 1.58428 6.20173 0.902946 7.63869 0.544257C9.07565 0.185567 10.5754 0.158954 12.0242 0.466438C13.473 0.773921 14.8327 1.40742 16.0001 2.31885C17.1675 3.23027 18.1119 4.39567 18.7616 5.72659C19.4114 7.0575 19.7494 8.51895 19.75 10ZM16 12.25C16.0001 12.1107 15.9614 11.9741 15.8882 11.8555C15.815 11.7369 15.7102 11.6411 15.5856 11.5787L12.5856 10.0787C12.4675 10.0199 12.336 9.99325 12.2043 10.0015C12.0726 10.0097 11.9455 10.0525 11.8356 10.1256L10.4584 11.0444C9.82624 10.6968 9.30598 10.1766 8.95844 9.54437L9.87719 8.16719C9.95028 8.05734 9.9931 7.93016 10.0013 7.79848C10.0096 7.6668 9.98291 7.53527 9.92406 7.41719L8.42406 4.41719C8.36189 4.29163 8.26579 4.18599 8.14665 4.11226C8.02752 4.03852 7.89011 3.99963 7.75 4C6.75544 4 5.80161 4.39509 5.09835 5.09835C4.39509 5.80161 4 6.75544 4 7.75C4.00248 9.93727 4.87247 12.0343 6.41911 13.5809C7.96575 15.1275 10.0627 15.9975 12.25 16C12.7425 16 13.2301 15.903 13.6851 15.7145C14.14 15.5261 14.5534 15.2499 14.9017 14.9016C15.2499 14.5534 15.5261 14.14 15.7145 13.6851C15.903 13.2301 16 12.7425 16 12.25Z" fill="#F9FAFB"/>
</svg>
